<?xml version="1.0" encoding="utf-8"?>
<!-- Generator: Adobe Illustrator 15.1.0, SVG Export Plug-In  -->
<!DOCTYPE svg PUBLIC "-//W3C//DTD SVG 1.1//EN" "http://www.w3.org/Graphics/SVG/1.1/DTD/svg11.dtd" [
	<!ENTITY ns_flows "http://ns.adobe.com/Flows/1.0/">
]>
<svg version="1.1"
	 xmlns="http://www.w3.org/2000/svg" xmlns:xlink="http://www.w3.org/1999/xlink" xmlns:a="http://ns.adobe.com/AdobeSVGViewerExtensions/3.0/"
	 x="0px" y="0px"  preserveAspectRatio="xMinYMin meet" viewBox="0 0 488 429"
	 overflow="visible" enable-background="new -2.893 -4.288 488 429" xml:space="preserve">
<defs>
</defs>
<path fill="#1A1A18" d="M39.437,322.107c21.951,0,29.02,9.694,29.02,20.499c0,14.239-11.41,22.217-34.476,22.217
	c-3.845,0-7.937,0-12.403-0.505v6.968c0,11.008,0.373,20.802,0.497,22.419l10.913-0.303v2.423
	c-5.209-0.202-12.153-0.404-17.114-0.404c-4.96,0-10.665,0.202-15.874,0.404v-2.423l10.914,0.303v-69.276L0,324.732v-2.423
	c5.209,0.202,12.155,0.404,17.115,0.404C24.556,322.713,30.385,322.107,39.437,322.107z M21.579,362.602
	c15.13,0,20.463-0.606,24.184-1.918c6.696-2.323,10.541-7.373,10.541-17.371c0-10.199-4.464-14.541-12.277-16.964
	c-4.342-1.415-10.542-1.92-21.083-1.92C22.448,330.186,21.703,344.323,21.579,362.602z"/>
<path fill="#1A1A18" d="M99.337,348.564v2.425l-9.425-0.303c3.473,8.078,12.029,29.183,14.635,36.758
	c2.728-6.766,11.408-28.68,14.757-36.758l-9.426,0.303v-2.425c3.597,0.303,7.565,0.405,10.666,0.405c2.48,0,5.828-0.102,9.425-0.405
	v2.425l-7.565-0.303c-5.58,11.714-13.393,32.415-19.346,45.241c-9.178,19.894-15.006,24.942-22.943,24.942
	c-3.099,0-5.457-1.615-5.457-4.443c0-2.625,1.984-4.443,5.085-4.443c2.852,0,4.216,1.616,4.216,3.938c0,0.303,0,0.707-0.124,1.112
	c4.962,0,10.541-7.876,15.502-19.491c-1.983-5.453-15.13-36.858-20.09-46.855l-7.441,0.303v-2.425
	c3.101,0.203,7.938,0.405,12.898,0.405C89.664,348.969,95.369,348.768,99.337,348.564z"/>
<path fill="#1A1A18" d="M157.5,369.468c0,11.008,0.372,22.62,0.496,24.237l13.394-0.303v2.423
	c-5.209-0.202-13.394-0.404-18.354-0.404c-4.962,0-10.667,0.202-15.874,0.404v-2.423l10.912,0.303v-43.019l-10.912,0.303v-2.425
	c5.207,0.203,13.642,0.405,20.71,0.405c-0.248,3.836-0.372,7.876-0.372,12.016c5.829-10.401,15.75-13.733,22.322-13.733
	c6.326,0,8.434,2.625,8.434,5.857c0,3.736-2.48,4.848-6.201,4.848c-3.596,0-5.084-1.919-5.084-4.241
	c0-1.213,0.372-2.425,1.115-3.636C167.173,350.08,157.5,361.188,157.5,369.468z"/>
<path fill="#1A1A18" d="M220.621,347.252c16.001,0,21.085,4.543,21.085,15.35c0,6.261-0.372,17.369-0.372,25.043
	c0,5.05,1.363,6.363,4.96,6.363c1.861,0,4.712-0.303,6.323-0.505v2.322c-2.975,0-5.951,0.102-9.298,0.102
	c-7.815,0-11.412-2.323-11.412-9.594c-3.471,5.656-11.903,10.604-20.71,10.604c-8.185,0-14.882-3.433-14.882-12.421
	c0-7.878,4.713-12.321,13.767-14.038c7.937-1.413,13.888-1.818,21.456-2.322c0-14.139,0-18.985-11.165-18.985
	c-8.555,0-11.656,3.03-11.656,8.483c0,2.12-1.984,3.231-4.464,3.231c-2.604,0-4.217-0.91-4.217-3.333
	C200.036,351.998,207.353,347.252,220.621,347.252z M206.609,384.111c0,7.574,3.473,9.594,9.303,9.594
	c7.066,0,15.626-6.261,15.626-14.341v-9.896c-4.963,0.606-9.551,1.111-14.635,2.02C209.586,372.7,206.609,376.538,206.609,384.111z"
	/>
<path fill="#1A1A18" d="M280.024,360.985c5.83-10.401,13.644-13.733,23.194-13.733c9.796,0,14.88,5.655,14.88,14.036
	c5.83-10.199,13.519-14.036,23.066-14.036c9.796,0,14.883,5.655,14.883,13.633c0,5.756-0.248,21.206-0.248,32.82l11.035-0.303v2.423
	c-5.207-0.202-10.911-0.404-15.874-0.404c-4.959,0-10.663,0.202-15.873,0.404v-2.423l10.914,0.303v-32.618
	c0-6.361-1.363-11.007-8.681-11.007c-10.292,0-19.347,11.311-19.347,19.389c0,6.463-0.124,16.359-0.124,24.237l11.038-0.303v2.423
	c-5.208-0.202-10.914-0.404-15.874-0.404s-10.666,0.202-15.874,0.404v-2.423l10.914,0.303v-32.618
	c0-6.361-1.366-11.007-8.681-11.007c-10.917,0-19.35,11.109-19.35,19.389c0,11.008,0.374,22.62,0.496,24.237l10.916-0.303v2.423
	c-5.21-0.202-10.916-0.404-15.874-0.404c-4.962,0-10.666,0.202-15.873,0.404v-2.423l10.911,0.303v-43.019l-10.911,0.303v-2.425
	c5.207,0.203,13.64,0.405,20.709,0.405C280.151,352.806,280.024,356.846,280.024,360.985z"/>
<path fill="#1A1A18" d="M395.856,393.705l10.914-0.303v2.423c-5.21-0.202-10.418-0.404-15.378-0.404s-10.418,0.202-15.626,0.404
	v-2.423l10.914,0.303v-43.019l-10.914,0.303v-2.425c5.208,0.203,14.136,0.405,21.205,0.405
	C396.229,355.634,395.856,385.727,395.856,393.705z M399.329,332.004c0,3.13-2.977,5.351-6.697,5.351s-6.571-2.221-6.571-5.351
	c0-3.13,2.851-5.555,6.571-5.555S399.329,328.874,399.329,332.004z"/>
<path fill="#1A1A18" d="M459.725,388.757c-4.467,4.443-10.295,8.18-19.347,8.18c-14.264,0-24.431-10.301-24.431-25.045
	c0-14.944,9.672-24.639,23.312-24.639c10.046,0,18.231,4.645,20.712,8.482v-31.305l-10.914,0.303v-2.423
	c5.208,0.202,14.883,0.404,21.95,0.404c-0.496,6.666-1.611,24.035-1.611,48.573c0,11.008,0.371,20.802,0.495,22.419l10.914-0.303
	v2.423c-5.208-0.202-15.254-0.404-20.214-0.404C459.972,393.604,459.725,390.474,459.725,388.757z M427.478,372.296
	c0,15.854,6.574,22.014,16.001,22.014c7.811,0,16.493-4.746,16.493-13.329v-19.188c0-5.756-7.564-11.916-16.245-11.916
	C432.192,349.877,427.478,357.957,427.478,372.296z"/>
<polygon fill="#D60524" points="173.808,0 240.537,113.321 143.161,285.231 10.21,285.229 "/>
<polygon fill="#BBBCBD" points="307.358,0 240.633,113.321 338.007,285.231 470.957,285.229 "/>
</svg>
